<?xml version="1.0" encoding="UTF-8"?>
<!DOCTYPE svg PUBLIC "-//W3C//DTD SVG 1.1//EN" "http://www.w3.org/Graphics/SVG/1.1/DTD/svg11.dtd">
<svg version="1.2" xmlns="http://www.w3.org/2000/svg" xmlns:xlink="http://www.w3.org/1999/xlink" x="0" y="0" width="654" height="548" viewBox="0 0 654 548">
<style type="text/css"><![CDATA[
text { font:12px Dialog; }
]]></style>
<rect x="-485" y="-485" width="1624" height="1518" style="fill:rgb(255,255,255);stroke:none" />
<clipPath id="clip1"><path d="M20,14 L109,14 L109,102 L20,102 L20,14 Z" /></clipPath>
<path d="M104,57.5 C104,35.6847534 86.0913925,18 64,18 C41.9086075,18 24,35.6847534 24,57.5 C24,79.3152466 41.9086075,97 64,97 C86.0913925,97 104,79.3152466 104,57.5 Z M104,57.5" style="fill:none;stroke:rgb(32,150,243);stroke-width:5" clip-path="url(#clip1)" />
<clipPath id="clip2"><path d="M45,46 L84,46 L84,70 L45,70 L45,46 Z" /></clipPath>
<path d="M53.1757813,60.8515625 C53.1757813,60.5755196 53.0390625,60.3580742 52.765625,60.1992188 C52.4921875,60.0403633 52.0533905,59.8984375 51.4492188,59.7734375 C49.4387932,59.3515587 48.4335938,58.4974022 48.4335938,57.2109375 C48.4335938,56.4609337 48.7447891,55.8346367 49.3671875,55.3320313 C49.9895859,54.8294258 50.8033791,54.578125 51.8085938,54.578125 C52.8815155,54.578125 53.7395782,54.8307266 54.3828125,55.3359375 C55.0260468,55.8411484 55.3476563,56.4973907 55.3476563,57.3046875 L53.0898438,57.3046875 C53.0898438,56.9817696 52.9856796,56.7148438 52.7773438,56.5039063 C52.5690079,56.2929688 52.2434921,56.1875 51.8007813,56.1875 C51.4205704,56.1875 51.1263046,56.2734375 50.9179688,56.4453125 C50.7096329,56.6171875 50.6054688,56.8359375 50.6054688,57.1015625 C50.6054688,57.3515625 50.7239571,57.5533829 50.9609375,57.7070313 C51.1979179,57.8606796 51.5976524,57.9934883 52.1601563,58.1054688 C52.7226601,58.2174492 53.1966133,58.34375 53.5820313,58.484375 C54.7747459,58.9218788 55.3710938,59.6796837 55.3710938,60.7578125 C55.3710938,61.5286484 55.0403671,62.1523399 54.3789063,62.6289063 C53.7174454,63.1054726 52.8632851,63.34375 51.8164063,63.34375 C51.1080704,63.34375 50.4791718,63.2174492 49.9296875,62.9648438 C49.3802032,62.7122383 48.9492188,62.3658867 48.6367188,61.9257813 C48.3242188,61.4856758 48.1679688,61.0104179 48.1679688,60.5 L50.3085938,60.5 C50.3294258,60.9010429 50.4778633,61.2083321 50.7539063,61.421875 C51.0299492,61.6354179 51.3997383,61.7421875 51.8632813,61.7421875 C52.2955742,61.7421875 52.6223946,61.6601563 52.84375,61.4960938 C53.0651054,61.3320313 53.1757813,61.1171875 53.1757813,60.8515625 Z M59.3007813,52.65625 L59.3007813,54.734375 L60.7460938,54.734375 L60.7460938,56.390625 L59.3007813,56.390625 L59.3007813,60.609375 C59.3007813,60.921875 59.3606758,61.1458321 59.4804688,61.28125 C59.6002617,61.4166679 59.8294258,61.484375 60.1679688,61.484375 C60.4179688,61.484375 60.6393204,61.4661446 60.8320313,61.4296875 L60.8320313,63.140625 C60.3893204,63.2760429 59.9335976,63.34375 59.4648438,63.34375 C57.8815041,63.34375 57.0742188,62.5442772 57.0429688,60.9453125 L57.0429688,56.390625 L55.8085938,56.390625 L55.8085938,54.734375 L57.0429688,54.734375 L57.0429688,52.65625 Z M66.4960938,63.1875 C66.3919296,62.984375 66.3164063,62.7317734 66.2695313,62.4296875 C65.7226563,63.0390663 65.0117264,63.34375 64.1367188,63.34375 C63.3085899,63.34375 62.6223984,63.1041679 62.078125,62.625 C61.5338516,62.1458321 61.2617188,61.5416718 61.2617188,60.8125 C61.2617188,59.9166641 61.5937462,59.2291679 62.2578125,58.75 C62.9218788,58.2708321 63.8815041,58.0286446 65.1367188,58.0234375 L66.1757813,58.0234375 L66.1757813,57.5390625 C66.1757813,57.1484337 66.0755234,56.8359375 65.875,56.6015625 C65.6744766,56.3671875 65.358078,56.25 64.9257813,56.25 C64.5455704,56.25 64.2473984,56.3411446 64.03125,56.5234375 C63.8151016,56.7057304 63.7070313,56.9557266 63.7070313,57.2734375 L61.4492188,57.2734375 C61.4492188,56.7838516 61.6002579,56.3307304 61.9023438,55.9140625 C62.2044296,55.4973946 62.6315079,55.1705742 63.1835938,54.9335938 C63.7356796,54.6966133 64.3554688,54.578125 65.0429688,54.578125 C66.0846405,54.578125 66.9114532,54.8398399 67.5234375,55.3632813 C68.1354218,55.8867226 68.4414063,56.6223907 68.4414063,57.5703125 L68.4414063,61.234375 C68.4466171,62.0364609 68.5585938,62.6432266 68.7773438,63.0546875 L68.7773438,63.1875 Z M64.6289063,61.6171875 C64.9622421,61.6171875 65.2695313,61.5429688 65.5507813,61.3945313 C65.8320313,61.2460938 66.0403671,61.046875 66.1757813,60.796875 L66.1757813,59.34375 L65.3320313,59.34375 C64.2018204,59.34375 63.6002617,59.7343712 63.5273438,60.515625 L63.5195313,60.6484375 C63.5195313,60.9296875 63.6184883,61.1614571 63.8164063,61.34375 C64.0143204,61.5260429 64.2851563,61.6171875 64.6289063,61.6171875 Z M75.3476563,56.8515625 C75.0403595,56.8098946 74.7695313,56.7890625 74.5351563,56.7890625 C73.6809845,56.7890625 73.1210938,57.0781212 72.8554688,57.65625 L72.8554688,63.1875 L70.5976563,63.1875 L70.5976563,54.734375 L72.7304688,54.734375 L72.7929688,55.7421875 C73.2460938,54.9661407 73.8736954,54.578125 74.6757813,54.578125 C74.9257813,54.578125 75.1601563,54.6119804 75.3789063,54.6796875 Z M79.3007813,52.65625 L79.3007813,54.734375 L80.7460938,54.734375 L80.7460938,56.390625 L79.3007813,56.390625 L79.3007813,60.609375 C79.3007813,60.921875 79.3606796,61.1458321 79.4804688,61.28125 C79.6002579,61.4166679 79.829422,61.484375 80.1679688,61.484375 C80.4179688,61.484375 80.6393204,61.4661446 80.8320313,61.4296875 L80.8320313,63.140625 C80.3893204,63.2760429 79.9335938,63.34375 79.4648438,63.34375 C77.8815002,63.34375 77.0742188,62.5442772 77.0429688,60.9453125 L77.0429688,56.390625 L75.8085938,56.390625 L75.8085938,54.734375 L77.0429688,54.734375 L77.0429688,52.65625 Z M81.1367188,63.1875" style="fill:rgb(117,117,117);stroke:none" clip-path="url(#clip2)" />
<clipPath id="clip3"><path d="M14,153 L117,153 L117,198 L14,198 L14,153 Z" /></clipPath>
<path d="M25,156 C20.5817184,156 17,159.5817261 17,164 L17,186 C17,190.4182739 20.5817184,194 25,194 L105,194 C109.4182816,194 113,190.4182739 113,186 L113,164 C113,159.5817261 109.4182816,156 105,156 Z M25,156" style="fill:none;stroke:rgb(158,158,158);stroke-width:4" clip-path="url(#clip3)" />
<clipPath id="clip4"><path d="M30,164 L101,164 L101,187 L30,187 L30,164 Z" /></clipPath>
<path d="M34.0144997,169.7669983 L33.3775024,170.3779907 C34.300499,171.1190033 35.0284996,171.8079987 35.5485001,172.4450073 L36.2245026,171.7819977 C35.6264992,171.1060028 34.885498,170.4429932 34.0144997,169.7669983 Z M41.5674973,181.2460022 L44.5445023,181.2460022 L44.7655029,180.3099976 C44.4274979,180.3359985 43.9335022,180.348999 43.3095016,180.3619995 C42.6725006,180.375 42.0485001,180.3880005 41.4375,180.3880005 C40.4365005,180.3880005 39.5914993,180.375 38.9155006,180.3619995 C38.161499,180.3359985 37.5764999,180.2319946 37.1865005,180.0500031 C36.8225021,179.8809967 36.4974976,179.6080017 36.1855011,179.2310028 C36.081501,179.1139984 35.9775009,179.0100098 35.8735008,178.9320068 L35.8735008,174.0700073 L33.1435013,174.0700073 L33.1435013,174.928009 L35.0025024,174.928009 L35.0025024,178.8800049 C34.4694977,179.1139984 33.8584976,179.7770081 33.1695023,180.8690033 L33.8714981,181.5059967 C34.5865021,180.3099976 35.0934982,179.7120056 35.4055023,179.7120056 C35.5615005,179.7120056 35.7304993,179.8160095 35.899498,180.0370026 C36.3024979,180.5050049 36.7574997,180.8300018 37.2644997,180.9859924 C37.7845001,181.1289978 38.4475021,181.2070007 39.2795029,181.2200012 C40.0984993,181.2330017 40.8655014,181.2460022 41.5674973,181.2460022 Z M36.7705002,170.8980103 L36.7705002,171.7689972 L38.4864998,171.7689972 C38.0575027,172.6920013 37.5764999,173.4720001 37.0564995,174.0960083 L37.2644997,174.95401 L40.2675018,174.95401 L40.2675018,176.5010071 L36.6665001,176.5010071 L36.6665001,177.3850098 L40.2675018,177.3850098 L40.2675018,179.803009 L41.1644974,179.803009 L41.1644974,177.3850098 L44.5704994,177.3850098 L44.5704994,176.5010071 L41.1644974,176.5010071 L41.1644974,174.95401 L43.9985008,174.95401 L43.9985008,174.0960083 L41.1644974,174.0960083 L41.1644974,172.5490112 L40.2675018,172.5490112 L40.2675018,174.0960083 L38.1744995,174.0960083 C38.6425018,173.4199982 39.0844994,172.6399994 39.4745026,171.7689972 L44.4015007,171.7689972 L44.4015007,170.8980103 L39.838501,170.8980103 C39.9944992,170.5079956 40.1375008,170.105011 40.2805023,169.6759949 L39.3834991,169.4680023 C39.2275009,169.9620056 39.0455017,170.4429932 38.8635025,170.8980103 Z M52.2275009,171.7559967 L51.4604988,172.1199951 C51.7335014,172.5879974 51.9934998,173.1080017 52.2535019,173.6799927 L50.2644997,173.6799927 L50.2644997,174.5769958 L57.5185013,174.5769958 L57.5185013,173.6799927 L55.4124985,173.6799927 C55.7115021,173.1600037 55.9845009,172.5749969 56.2314987,171.9250031 L55.3474998,171.6130066 C55.0875015,172.3410034 54.7884979,173.0299988 54.4244995,173.6799927 L53.1505013,173.6799927 C52.864502,172.9779968 52.5654984,172.3410034 52.2275009,171.7559967 Z M53.9435005,169.4810028 L52.9684982,169.6369934 C53.1245003,169.9620056 53.2805023,170.326004 53.4235001,170.7160034 L50.5634995,170.7160034 L50.5634995,171.5740051 L57.2845001,171.5740051 L57.2845001,170.7160034 L54.3725014,170.7160034 C54.2294998,170.2610016 54.0865021,169.8450012 53.9435005,169.4810028 Z M47.456501,181.3630066 C48.2234993,181.3630066 48.6134987,180.9859924 48.6134987,180.2319946 L48.6134987,176.3840027 C48.9775009,176.2149963 49.3414993,176.0329895 49.7054977,175.8379974 L49.7054977,174.8890076 C49.3414993,175.0839996 48.9775009,175.2659912 48.6134987,175.447998 L48.6134987,172.9519958 L49.6925011,172.9519958 L49.6925011,172.0549927 L48.6134987,172.0549927 L48.6134987,169.5979919 L47.6515007,169.5979919 L47.6515007,172.0549927 L46.0654984,172.0549927 L46.0654984,172.9519958 L47.6515007,172.9519958 L47.6515007,175.8509979 C47.0534973,176.0849915 46.4424973,176.2799988 45.831501,176.4360046 L46.0654984,177.3720093 C46.5984993,177.2030029 47.1315002,177.0079956 47.6515007,176.8000031 L47.6515007,179.9980011 C47.6515007,180.3359985 47.4694977,180.5050049 47.1315002,180.5050049 C46.8195,180.5050049 46.4814987,180.4790039 46.1305008,180.4530029 L46.3255005,181.3630066 Z M52.7994995,174.9410095 C52.6565018,175.3049927 52.5004997,175.6690063 52.3185005,176.0589905 L50.0955009,176.0589905 L50.0955009,176.9689941 L51.8375015,176.9689941 C51.5644989,177.4629974 51.2525024,177.9700012 50.9015007,178.5029907 C51.8115005,178.8670044 52.6565018,179.2180023 53.449501,179.5820007 C52.6435013,180.0500031 51.4734993,180.4140015 49.9654999,180.6870117 L50.3294983,181.5319977 C52.2014999,181.1679993 53.5664978,180.6610107 54.4244995,180.0370026 C55.4645004,180.5310059 56.3614998,181.0119934 57.1414986,181.4930115 L57.6484985,180.7389984 C56.8294983,180.2709961 55.9715004,179.82901 55.0875015,179.4129944 C55.6985016,178.75 56.1015015,177.9309998 56.2965012,176.9689941 L57.7265015,176.9689941 L57.7265015,176.0589905 L53.2675018,176.0589905 C53.4235001,175.7340088 53.5664978,175.3959961 53.6964989,175.0449982 Z M55.4124985,176.9689941 C55.2044983,177.8009949 54.8144989,178.4769897 54.2294998,179.0230103 C53.5275002,178.7109985 52.7994995,178.4120026 52.0455017,178.1260071 C52.3055,177.7619934 52.5524979,177.3720093 52.786499,176.9689941 Z M60.7164993,174.0050049 L62.8095016,174.0050049 L62.8095016,176.1759949 L60.7164993,176.1759949 Z M62.8095016,173.1600037 L60.7164993,173.1600037 L60.7164993,170.9629974 L62.8095016,170.9629974 Z M60.7034988,177.0209961 L62.8095016,177.0209961 L62.8095016,179.9589996 C62.8095016,180.427002 62.6404991,180.6610107 62.3154984,180.6610107 C62.0035019,180.6610107 61.6785011,180.6350098 61.3144989,180.6090088 L61.5354996,181.4410095 L62.5755005,181.4410095 C63.3035011,181.4410095 63.6674995,181.0379944 63.6674995,180.2579956 L63.6674995,170.1180115 L59.8714981,170.1180115 L59.8714981,176.3580017 C59.8585014,178.178009 59.5984993,179.6860046 59.0784988,180.8560028 L59.7804985,181.5059967 C60.3134995,180.3359985 60.6254997,178.8410034 60.7034988,177.0209961 Z M65.6435013,175.7340088 L65.9554977,175.7340088 C66.2415009,177.0079956 66.800499,178.1520081 67.6324997,179.1660004 C67.1125031,179.7900085 66.4885025,180.2969971 65.7474976,180.6999969 L66.2415009,181.45401 C67.0214996,181.0379944 67.6845016,180.5050049 68.2565002,179.8420105 C68.8544998,180.427002 69.5565033,180.9599915 70.388504,181.4410095 L70.8564987,180.6480103 C70.0634995,180.1929932 69.3744965,179.6860046 68.7894974,179.1139984 C69.3874969,178.178009 69.8164978,177.0339966 70.0634995,175.6950073 L70.0634995,174.9020081 L65.6435013,174.9020081 L65.6435013,170.9629974 L69.114502,170.9629974 C69.088501,171.951004 69.036499,172.5879974 68.9455032,172.8739929 C68.8675003,173.0690002 68.7505035,173.1990051 68.5944977,173.2510071 C68.4384995,173.2900085 68.2174988,173.3160095 67.9055023,173.3160095 C67.5415039,173.3160095 67.2555008,173.303009 67.0345001,173.303009 L67.2815018,174.1090088 L68.3345032,174.1090088 C69.1535034,174.1090088 69.6344986,173.8359985 69.7904968,173.303009 C69.9465027,172.7829895 70.024498,171.7170105 70.024498,170.105011 L64.7594986,170.105011 L64.7594986,181.4930115 L65.6435013,181.4930115 Z M66.7614975,175.7340088 L69.2314987,175.7340088 C68.9974976,176.7610016 68.6464996,177.6579895 68.1654968,178.4380035 C67.5025024,177.6320038 67.0345001,176.7350006 66.7614975,175.7340088 Z M75.8225021,169.519989 C75.2764969,170.8200073 74.2105026,171.9120026 72.6504974,172.8089905 L73.2225037,173.5630035 C73.8205032,173.1990051 74.3535004,172.79599 74.8475037,172.3540039 C75.4714966,172.8999939 76.1474991,173.3939972 76.8755035,173.822998 C75.4455032,174.394989 73.7945023,174.8110046 71.9095001,175.0709991 L72.338501,175.9550018 C74.4445038,175.6300049 76.3034973,175.0970001 77.8894958,174.3690033 C79.501503,175.1750031 81.3345032,175.6950073 83.388504,175.9290009 L83.8174973,175.0579987 C82.010498,174.8760071 80.3724976,174.4729919 78.9035034,173.848999 C80.0995026,173.1730042 81.1135025,172.3540039 81.9454956,171.3919983 L81.9454956,170.6380005 L76.2774963,170.6380005 C76.4595032,170.326004 76.6285019,170.0010071 76.7714996,169.6499939 Z M77.876503,173.3680115 C77.0055008,172.9129944 76.199501,172.3670044 75.4714966,171.730011 L75.6405029,171.5220032 L80.6064987,171.5220032 C79.8395004,172.223999 78.9295044,172.8479919 77.876503,173.3680115 Z M77.0834961,175.3049927 C77.0834961,175.8249969 77.0315018,176.3190002 76.9274979,176.7870026 L72.7935028,176.7870026 L72.7935028,177.6320038 L76.6675034,177.6320038 C76.5634995,177.8919983 76.4205017,178.1390076 76.2644958,178.3730011 C75.588501,179.321991 74.1715012,180.1149902 72.0394974,180.7389984 L72.6634979,181.5059967 C75.0554962,180.7519989 76.5764999,179.7770081 77.239502,178.6069946 C77.4085007,178.2949982 77.5514984,177.9700012 77.6555023,177.6320038 L81.5035019,177.6320038 C81.4645004,178.9320068 81.3475037,179.7380066 81.1524963,180.0500031 C80.9445038,180.3619995 80.463501,180.5310059 79.6835022,180.5440063 L78.149498,180.4790039 L78.3834991,181.3240051 C78.9814987,181.3500061 79.4885025,181.3760071 79.9045029,181.3760071 C80.8274994,181.3760071 81.4775009,181.1549988 81.8544998,180.7259979 C82.2314987,180.2969971 82.4264984,178.9840088 82.4524994,176.7870026 L77.876503,176.7870026 C77.9544983,176.3190002 78.0065002,175.8249969 78.0065002,175.3049927 Z M86.1705017,170.053009 L86.1705017,173.2120056 L90.135498,173.2120056 L90.135498,170.053009 Z M89.2774963,172.4190063 L87.0155029,172.4190063 L87.0155029,170.8590088 L89.2774963,170.8590088 Z M91.5784988,170.053009 L91.5784988,173.2120056 L95.6214981,173.2120056 L95.6214981,170.053009 Z M94.7765045,172.4190063 L92.4365005,172.4190063 L92.4365005,170.8590088 L94.7765045,170.8590088 Z M85.1175003,174.5119934 L85.1175003,175.3439941 L88.7054977,175.3439941 C87.7955017,176.1239929 86.5214996,176.7610016 84.8574982,177.2550049 L85.286499,178.0220032 C85.6504974,177.9049988 86.0014954,177.7879944 86.3525009,177.6579895 L86.3525009,181.4930115 L87.1715012,181.4930115 L87.1715012,180.9339905 L89.3945007,180.9339905 L89.3945007,181.4930115 L90.2265015,181.4930115 L90.2265015,177.3980103 L86.963501,177.3980103 C88.1855011,176.8519897 89.1604996,176.1759949 89.888504,175.3439941 L92.0855026,175.3439941 C92.7355042,176.1369934 93.6975021,176.826004 94.9454956,177.3980103 L91.4745026,177.3980103 L91.4745026,181.4930115 L92.3065033,181.4930115 L92.3065033,180.9339905 L94.7375031,180.9339905 L94.7375031,181.4930115 L95.5695038,181.4930115 L95.5695038,177.67099 C95.8554993,177.7749939 96.1544952,177.8919983 96.4794998,177.9960022 L96.8564987,177.2030029 C95.1795044,176.7480011 93.9185028,176.1239929 93.0735016,175.3439941 L96.5834961,175.3439941 L96.5834961,174.5119934 L94.7894974,174.5119934 C94.5814972,174.1090088 94.3475037,173.7319946 94.074501,173.3680115 L93.2815018,173.6279907 C93.489502,173.8880005 93.6845016,174.1870117 93.8665009,174.5119934 L90.5124969,174.5119934 C90.6945038,174.1999969 90.8635025,173.8880005 90.9934998,173.5500031 L90.0964966,173.4589996 C89.9404984,173.822998 89.7454987,174.1740112 89.4985046,174.5119934 Z M87.1715012,180.1279907 L87.1715012,178.178009 L89.3945007,178.178009 L89.3945007,180.1279907 Z M92.3065033,180.1279907 L92.3065033,178.178009 L94.7375031,178.178009 L94.7375031,180.1279907 Z M97.350502,180.1799927" style="fill:rgb(117,117,117);stroke:none" clip-path="url(#clip4)" />
<clipPath id="clip5"><path d="M33,265 L93,265 L93,316 L33,316 L33,265 Z" /></clipPath>
<path d="M62.5,266 L34,290 L62.5,314 L91,290 Z M62.5,266" style="fill:rgb(97,97,97);stroke:none" clip-path="url(#clip5)" />
<clipPath id="clip6"><path d="M47,279 L79,279 L79,302 L47,302 L47,279 Z" /></clipPath>
<path d="M59.3670006,284.4940186 L58.769001,285.0660095 C59.4319992,285.572998 59.9519997,286.0540161 60.3419991,286.5220032 L57.9109993,286.5220032 C57.8849983,285.8980103 57.8720016,285.2349854 57.8720016,284.507019 L56.9099998,284.507019 C56.9099998,285.2089844 56.9230003,285.8720093 56.9490013,286.5220032 L51.5800018,286.5220032 L51.5800018,290.8510132 C51.5410004,292.9700012 51.1119995,294.6210022 50.2799988,295.8170166 L50.9949989,296.45401 C51.9570007,295.0499878 52.4769974,293.178009 52.5289993,290.8510132 L52.5289993,290.4609985 L54.7779999,290.4609985 C54.7519989,291.8909912 54.7129974,292.8270264 54.6349983,293.2690125 C54.5569992,293.6329956 54.375,293.8280029 54.0890007,293.8410034 C53.737999,293.8410034 53.3089981,293.8280029 52.802002,293.802002 L53.0879974,294.6470032 C53.5039978,294.6730042 53.8810005,294.6990051 54.1930008,294.6990051 C54.8429985,294.6730042 55.2459984,294.3870239 55.4150009,293.8280029 C55.5839996,293.1910095 55.6879997,291.7739868 55.7140007,289.5770264 L52.5289993,289.5770264 L52.5289993,287.4190063 L56.987999,287.4190063 C57.0919991,289.0440063 57.2739983,290.4089966 57.5599976,291.5010071 C57.7029991,292.0599976 57.8720016,292.5800171 58.0540009,293.0610046 C57.1569977,294.1920166 56.0519981,295.0499878 54.7519989,295.6350098 L55.2719994,296.4150085 C56.4939995,295.8690186 57.5599976,295.0759888 58.4700012,294.0100098 C58.6650009,294.4130249 58.8860016,294.7770081 59.1199989,295.0889893 C59.7439995,295.8690186 60.3289986,296.2590027 60.875,296.2590027 C61.4599991,296.2590027 61.9020004,295.3880005 62.2140007,293.6589966 L61.3689995,293.1910095 C61.1739998,294.5300293 60.9529991,295.2059937 60.718998,295.2189941 C60.4589996,295.2189941 60.1080017,294.9070129 59.6790009,294.28302 C59.4710007,293.9840088 59.276001,293.6199951 59.0940018,293.20401 C59.9259987,292.0339966 60.6020012,290.5780029 61.1220016,288.8619995 L60.2770004,288.4979858 C59.8740005,289.8890076 59.3540001,291.1110229 58.7039986,292.151001 C58.612999,291.8649902 58.5219994,291.5660095 58.4440002,291.2410278 C58.2099991,290.3049927 58.0410004,289.0310059 57.9500008,287.4190063 L61.9539986,287.4190063 L61.9539986,286.5220032 L60.368,286.5220032 L60.9659996,285.9240112 C60.5239983,285.4429932 59.9910011,284.9620056 59.3670006,284.4940186 Z M65.2429962,286.8859863 L65.2429962,293.1130066 C64.5800018,293.2690125 63.9039993,293.4119873 63.2280006,293.5289917 L63.461998,294.4650269 C65.1520004,294.1010132 66.737999,293.6589966 68.2200012,293.1130066 L68.2200012,292.177002 C67.5569992,292.4370117 66.8809967,292.65802 66.1920013,292.8530273 L66.1920013,286.8859863 L68.064003,286.8859863 L68.064003,285.9890137 L63.3709984,285.9890137 L63.3709984,286.8859863 Z M70.4560013,284.5720215 L70.4560013,287.197998 L68.3889999,287.197998 L68.3889999,288.1080017 L70.4560013,288.1080017 C70.4039993,291.6440125 69.4420013,294.2310181 67.5439987,295.8430176 L68.310997,296.506012 C70.3130035,294.7250061 71.3529968,291.9299927 71.4179993,288.1080017 L73.7969971,288.1080017 C73.7709961,291.57901 73.7190018,293.6589966 73.6409988,294.335022 C73.5110016,295.0759888 73.0169983,295.4530029 72.1719971,295.4530029 C71.8079987,295.4530029 71.3919983,295.4400024 70.9110031,295.4140015 L71.1319962,296.2850037 C71.6910019,296.3110046 72.0810013,296.3370056 72.3150024,296.3370056 C73.6279984,296.3370056 74.3690033,295.7910156 74.5250015,294.7250061 C74.6549988,293.7630005 74.7200012,291.2540283 74.7200012,287.197998 L71.4179993,287.197998 L71.4179993,284.5720215 Z M75.6949997,295.1539917" style="fill:rgb(255,255,255);stroke:none" clip-path="url(#clip6)" />
<clipPath id="clip7"><path d="M143,269 L186,269 L186,312 L143,312 L143,269 Z" /></clipPath>
<path d="M184,290 C184,278.9542847 175.0456848,270 164,270 C152.9543152,270 144,278.9542847 144,290 C144,301.0457153 152.9543152,310 164,310 C175.0456848,310 184,301.0457153 184,290 Z M184,290" style="fill:rgb(3,128,3);stroke:none" clip-path="url(#clip7)" />
<clipPath id="clip8"><path d="M157,279 L172,279 L172,302 L157,302 L157,279 Z" /></clipPath>
<path d="M164,289.6811523 L165.9360352,285.8598633 L168.0561523,285.8598633 L164.9775391,291.5283203 L164.9775391,295.1401367 L163.0224609,295.1401367 L163.0224609,291.5917969 L159.9438477,285.8598633 L162.0766602,285.8598633 Z M168.0561523,295.1401367" style="fill:rgb(255,255,255);stroke:none" clip-path="url(#clip8)" />
<clipPath id="clip9"><path d="M247,276 L420,276 L420,313 L247,313 L247,276 Z" /></clipPath>
<path d="M256,277 C251.5817261,277 248,280.5817261 248,285 L248,303 C248,307.4182739 251.5817261,311 256,311 L410,311 C414.4182739,311 418,307.4182739 418,303 L418,285 C418,280.5817261 414.4182739,277 410,277 Z M256,277" style="fill:rgb(3,128,3);stroke:none" clip-path="url(#clip9)" />
<clipPath id="clip10"><path d="M259,283 L408,283 L408,306 L259,306 L259,283 Z" /></clipPath>
<path d="M262.7609863,292.7384949 L265.9199829,292.7384949 C265.0360107,295.4035034 263.7230225,297.509491 261.9680176,299.0694885 L262.6829834,300.3305054 C264.0740051,299.1994934 265.2310181,297.6914978 266.1539917,295.8194885 C266.5700073,296.5344849 267.1679993,297.2105103 267.9609985,297.8604736 C267.0769958,298.3934937 265.9979858,298.8875122 264.7369995,299.3424988 L265.4519958,300.6164856 C266.90802,300.0444946 268.1430054,299.4074707 269.1569824,298.7055054 C270.210022,299.3684998 271.5100098,299.9794922 273.0570068,300.5515137 L273.7590027,299.2644958 C272.4199829,298.8225098 271.2630005,298.3414917 270.2879944,297.8084717 C271.2109985,296.9505005 271.835022,296.0144958 272.1470032,295.0004883 L272.1470032,293.8565063 L266.9989929,293.8565063 C267.1159973,293.4924927 267.2330017,293.128479 267.3630066,292.7384949 L273.6159973,292.7384949 L273.6159973,291.4514771 L267.7009888,291.4514771 C267.9219971,290.5675049 268.1040039,289.6314697 268.2600098,288.6304932 L266.8690186,288.4614868 C266.7260132,289.5014954 266.5310059,290.5025024 266.2969971,291.4514771 L264.5029907,291.4514771 L265.1530151,289.0985107 L263.8009949,288.8775024 Z M267.1419983,295.0784912 L270.7689819,295.0784912 C270.4179993,295.7804871 269.8590088,296.4564819 269.09198,297.0805054 C268.2210083,296.4564819 267.5709839,295.7934875 267.1419983,295.0784912 Z M270.4440002,288.4484863 L269.5209961,289.332489 C270.4830017,290.0604858 271.2109985,290.7625122 271.7180176,291.4254761 L272.6799927,290.4505005 C272.0820007,289.7744751 271.3280029,289.1115112 270.4440002,288.4484863 Z M276.3200073,288.6044922 L275.3840027,289.4884949 C276.3200073,290.2424927 277.0350037,290.9444885 277.5289917,291.5944824 L278.5039978,290.6325073 C277.9060059,289.9564819 277.1779785,289.2804871 276.3200073,288.6044922 Z M283.71698,300.3175049 L286.6940002,300.3175049 L287.0189819,298.9784851 C286.6679993,299.0044861 286.1610107,299.0304871 285.4979858,299.056488 C284.8220215,299.056488 284.1719971,299.0694885 283.5220032,299.0694885 C282.5079956,299.0694885 281.6369934,299.056488 280.8829956,299.0434875 C280.1159973,299.0174866 279.5440063,298.9135132 279.1669922,298.7185059 C278.8549805,298.5494995 278.5559998,298.2894897 278.257019,297.9514771 L278.1140137,297.8084717 L278.1140137,292.8684998 L275.1369934,292.8684998 L275.1369934,294.1164856 L276.8529968,294.1164856 L276.8529968,297.6784973 C276.3330078,297.9644775 275.7609863,298.6275024 275.1109924,299.6674805 L276.1119995,300.5905151 C276.7619934,299.4204712 277.2039795,298.8485107 277.4639893,298.8485107 C277.6069946,298.8485107 277.7630005,298.9525146 277.9450073,299.1734924 C278.335022,299.6154785 278.789978,299.9144897 279.3099976,300.0704956 C279.8560181,300.2005005 280.5449829,300.2785034 281.3900146,300.2915039 C282.2219849,300.3045044 283.0020142,300.3175049 283.71698,300.3175049 Z M279.0759888,293.4794922 L279.0759888,294.753479 L281.7669983,294.753479 C281.3250122,295.8454895 280.3890076,296.7294922 278.9589844,297.4184875 L279.8170166,298.5234985 C281.6759949,297.4964905 282.8070068,296.2354736 283.210022,294.753479 L286.6289978,294.753479 L286.6289978,293.4794922 L283.4440002,293.4794922 C283.4960022,293.0374756 283.5350037,292.5174866 283.5480042,291.9454956 L286.1870117,291.9454956 L286.1870117,290.6975098 L284.7960205,290.6975098 C285.1080017,290.1514893 285.3939819,289.5274963 285.6539917,288.8515015 L284.3800049,288.3964844 C284.1069946,289.2025146 283.7819824,289.9694824 283.4179993,290.6975098 L281.5460205,290.6975098 L282.2219849,290.3594971 C281.8840027,289.6834717 281.5200195,289.0595093 281.1560059,288.5134888 L279.9470215,289.0985107 C280.2980042,289.5664978 280.6359863,290.0994873 280.947998,290.6975098 L279.5180054,290.6975098 L279.5180054,291.9454956 L282.2089844,291.9454956 C282.1959839,292.5044861 282.1569824,293.0114746 282.09198,293.4794922 Z M283.8599854,295.3125 L283.0670166,296.2094727 C283.9769897,296.8724976 284.8609924,297.6524963 285.6929932,298.5625 L286.6419983,297.5224915 C285.8099976,296.7424927 284.8739929,296.0014954 283.8599854,295.3125 Z M293.1809998,288.9035034 L288.3840027,288.9035034 L288.3840027,297.2365112 L289.6060181,297.2365112 L289.6060181,290.1514893 L291.9979858,290.1514893 L291.9979858,297.2365112 L293.1809998,297.2365112 Z M290.21698,290.9184875 L290.21698,295.1824951 C290.1779785,296.2614746 290.0220032,297.1455078 289.7359924,297.8344727 C289.4240112,298.4584961 288.8519897,298.9914856 288.007019,299.4204712 L288.7349854,300.5645142 C289.632019,300.1224976 290.2819824,299.4984741 290.6849976,298.6795044 C291.1010132,297.8084717 291.3220215,296.6384888 291.3609924,295.1824951 L291.3609924,290.9184875 Z M291.84198,297.5354919 L290.9710083,298.3804932 C291.6470032,299.1214905 292.1539917,299.8104858 292.5180054,300.4605103 L293.492981,299.4854736 C293.0379944,298.8485107 292.4920044,298.1984863 291.84198,297.5354919 Z M296.5220032,295.0394897 C297.1199951,297.3924866 298.0039978,299.1864929 299.1610107,300.4085083 L300.0839844,299.3554993 C299.0700073,298.3414917 298.2640076,296.8984985 297.6920166,295.0394897 L299.8110046,295.0394897 L299.8110046,293.739502 L295.6640015,293.739502 L295.6640015,288.5134888 L294.3380127,288.5134888 L294.3380127,293.739502 L293.5319824,293.739502 L293.5319824,295.0394897 L294.3380127,295.0394897 L294.3380127,298.7835083 C294.3380127,299.0174866 294.2210083,299.1994934 293.9869995,299.3164978 L294.5460205,300.5255127 C295.6119995,300.1875 296.5610046,299.7714844 297.3930054,299.2514954 L297.1589966,298.0424805 C296.664978,298.3544922 296.1710205,298.614502 295.6640015,298.8225098 L295.6640015,295.0394897 Z M298.6149902,289.0465088 C297.835022,290.3984985 296.8859863,291.4124756 295.7940063,292.088501 L296.5220032,293.128479 C297.7180176,292.4265137 298.7579956,291.3344727 299.6549988,289.878479 Z M310.6010132,291.2824707 L310.6010132,293.3494873 L303.6589966,293.3494873 L303.6589966,291.2824707 Z M303.6459961,294.6754761 L311.9790039,294.6754761 L311.9790039,289.9564819 L307.8580017,289.9564819 C307.6499939,289.3714905 307.4550171,288.8515015 307.2470093,288.3834839 L305.7910156,288.6174927 C306.0379944,289.0335083 306.2590027,289.4754944 306.46698,289.9564819 L302.3200073,289.9564819 L302.3200073,294.2724915 C302.3070068,296.4824829 301.8129883,298.2894897 300.8510132,299.680481 L301.8649902,300.6034851 C302.9830017,298.9395142 303.5679932,296.963501 303.6459961,294.6754761 Z M325.5379944,289.2414856 L320.2340088,289.2414856 L320.2340088,300.135498 L321.5469971,300.135498 L321.5469971,299.0434875 L324.2120056,299.0434875 L324.2120056,299.9794922 L325.5379944,299.9794922 Z M321.5469971,297.7694702 L321.5469971,290.5025024 L324.2120056,290.5025024 L324.2120056,297.7694702 Z M314.3710022,291.9324951 L314.3710022,293.1934814 L316.5029907,293.1934814 L316.5029907,293.2584839 C315.9570007,294.5324707 315.125,295.6765137 313.9940186,296.6904907 L314.5789795,298.1854858 C315.3460083,297.3145142 315.9830017,296.3654785 316.5029907,295.3255005 L316.5029907,300.3825073 L317.8029785,300.3825073 L317.8029785,294.9874878 C318.1929932,295.4815063 318.6610107,296.1314697 319.2070007,296.9375 L320,295.7544861 C319.2590027,294.9744873 318.5310059,294.2724915 317.8029785,293.661499 L317.8029785,293.1934814 L319.8829956,293.1934814 L319.8829956,291.9324951 L317.8029785,291.9324951 L317.8029785,290.2554932 C318.4790039,290.0994873 319.1549988,289.8914795 319.8179932,289.6574707 L319.1809998,288.5394897 C317.9849854,288.9945068 316.3599854,289.306488 314.3320007,289.4754944 L314.7739868,290.6845093 C315.3460083,290.6455078 315.9309998,290.5805054 316.5029907,290.489502 L316.5029907,291.9324951 Z M338.5379944,289.4494934 L333.6759949,289.4494934 C333.5589905,289.0595093 333.4419861,288.7214966 333.3250122,288.4094849 L331.8819885,288.6434937 C332.0119934,288.8905029 332.1419983,289.1635132 332.2590027,289.4494934 L327.4620056,289.4494934 L327.4620056,292.3225098 L328.7879944,292.3225098 L328.7879944,290.6715088 L337.2120056,290.6715088 L337.2120056,292.3225098 L338.5379944,292.3225098 Z M332.3630066,296.5084839 L332.3630066,298.8355103 L329.7369995,298.8355103 L329.7369995,296.9505005 L328.4110107,296.9505005 L328.4110107,300.5385132 L329.7369995,300.5385132 L329.7369995,300.0834961 L336.4450073,300.0834961 L336.4450073,300.5515137 L337.7839966,300.5515137 L337.7839966,296.7554932 L336.4450073,296.7554932 L336.4450073,298.8355103 L333.7149963,298.8355103 L333.7149963,296.5084839 Z M332.6749878,290.7495117 L331.6870117,291.3604736 C332.1809998,291.9064941 332.5710144,292.4005127 332.8569946,292.8554993 L333.8580017,292.1665039 C333.571991,291.7504883 333.1820068,291.2824707 332.6749878,290.7495117 Z M335.5610046,290.957489 C334.5599976,292.1275024 333.2990112,293.1414795 331.7780151,293.9735107 L331.7780151,292.1405029 L330.4649963,292.1405029 L330.4649963,294.6104736 C329.4119873,295.0784912 328.2420044,295.4685059 326.9679871,295.806488 L327.5010071,296.9505005 C328.696991,296.6254883 329.802002,296.2484741 330.8420105,295.806488 C331.0759888,296.0404968 331.427002,296.1704712 331.9079895,296.1704712 L334.8460083,296.1704712 C335.3919983,296.1704712 335.8080139,296.0664978 336.0679932,295.8714905 C336.3540039,295.6895142 336.5620117,295.0654907 336.6789856,294.0125122 L335.4049988,293.5964966 C335.3529968,294.259491 335.2619934,294.6494751 335.118988,294.77948 C335.0020142,294.9094849 334.8200073,294.9744873 334.5859985,294.9744873 L332.5320129,294.9744873 C334.131012,294.0775146 335.4700012,292.9854736 336.5490112,291.7114868 Z M336.9909973,292.2445068 L336.0159912,292.9464722 C336.8089905,293.9085083 337.4460144,294.77948 337.9140015,295.5855103 L338.9930115,294.8314819 C338.5249939,294.0905151 337.848999,293.2324829 336.9909973,292.2445068 Z M329.2170105,291.6074829 C328.8919983,292.5694885 328.3330078,293.4664917 327.5400085,294.2984924 L328.644989,295.0004883 C329.3989868,294.1164856 329.9710083,293.0764771 330.3869934,291.8674927 Z M344.6090088,292.9334717 L342.2430115,292.9334717 C342.5289917,292.1275024 342.75,291.2824707 342.9190063,290.385498 L344.8169861,290.385498 L344.8169861,289.0855103 L340.2669983,289.0855103 L340.2669983,290.385498 L341.644989,290.385498 C341.3330078,292.1275024 340.7479858,293.6875 339.8770142,295.0784912 L340.553009,296.1834717 C340.7349854,295.9104919 340.9169922,295.6375122 341.098999,295.3515015 L341.098999,300.0964966 L342.3469849,300.0964966 L342.3469849,299.2514954 L343.3609924,299.2514954 L343.3609924,299.8494873 L344.6090088,299.8494873 Z M342.3469849,298.0164795 L342.3469849,294.1554871 L343.3609924,294.1554871 L343.3609924,298.0164795 Z M345.9609985,290.8924866 L345.2590027,295.2994995 L350.5109863,295.2994995 C350.5109863,297.1455078 350.4070129,298.2504883 350.2120056,298.6405029 C350.0299988,299.0174866 349.4580078,299.2124939 348.4960022,299.2124939 C348.2749939,299.2124939 347.8720093,299.1734924 347.2999878,299.0954895 L347.6900024,300.4085083 C348.0799866,300.4475098 348.4440002,300.4735107 348.8080139,300.4735107 C350.0299988,300.4735107 350.8359985,300.213501 351.2260132,299.7194824 C351.6029968,299.2124939 351.7980042,297.3145142 351.7980042,294.0385132 L350.4979858,294.0385132 L351.1740112,288.9035034 L345.2850037,288.9035034 L345.2850037,290.1774902 L349.7049866,290.1774902 L349.1329956,294.0385132 L346.7539978,294.0385132 L347.2869873,290.9704895 Z M345.0119934,296.5604858 L345.0119934,297.8344727 L349.8739929,297.8344727 L349.8739929,296.5604858 Z M353.5140076,289.0205078 L353.5140076,290.3204956 L356.82901,290.3204956 C355.9970093,291.5814819 354.9960022,292.5304871 353.8259888,293.180481 L354.1900024,294.3504944 C356.9460144,294.2204895 359.6369934,293.9475098 362.2630005,293.5574951 C362.5620117,293.9475098 362.8349915,294.3374939 363.0950012,294.727478 L364.2130127,293.9345093 C363.5759888,292.9984741 362.6659851,291.9064941 361.4700012,290.6455078 L360.3649902,291.3474731 C360.7030029,291.7114868 361.0150146,292.0625 361.3269958,292.4265137 C359.6369934,292.6864929 357.92099,292.8814697 356.1659851,293.0114746 C356.9979858,292.2835083 357.7390137,291.3864746 358.4150085,290.3204956 L364.4339905,290.3204956 L364.4339905,289.0205078 Z M354.0469971,295.7544861 L354.0469971,297.0415039 L358.3110046,297.0415039 L358.3110046,298.7315063 L353.2279968,298.7315063 L353.2279968,300.0574951 L364.7720032,300.0574951 L364.7720032,298.7315063 L359.6889954,298.7315063 L359.6889954,297.0415039 L363.8619995,297.0415039 L363.8619995,295.7544861 L359.6889954,295.7544861 L359.6889954,294.4934998 L358.3110046,294.4934998 L358.3110046,295.7544861 Z M368.0480042,293.180481 L369.7510071,293.180481 L369.7510071,294.9744873 L368.0480042,294.9744873 Z M369.7510071,291.9714966 L368.0480042,291.9714966 L368.0480042,290.1514893 L369.7510071,290.1514893 Z M368.0220032,296.1964722 L369.7510071,296.1964722 L369.7510071,298.6665039 C369.7510071,299.1214905 369.6210022,299.3554993 369.3609924,299.3554993 C369.0490112,299.3554993 368.723999,299.3294983 368.3729858,299.3034973 L368.697998,300.4865112 L369.7380066,300.4865112 C370.5700073,300.4865112 370.9859924,300.0184937 370.9859924,299.10849 L370.9859924,288.9295044 L366.8389893,288.9295044 L366.8389893,295.3775024 C366.8259888,297.0935059 366.5660095,298.510498 366.04599,299.628479 L367.072998,300.5645142 C367.6059875,299.4074707 367.9179993,297.9514771 368.0220032,296.1964722 Z M373.053009,294.9094849 L373.1570129,294.9094849 C373.4299927,296.0924988 373.9370117,297.1585083 374.6650085,298.1074829 C374.2099915,298.614502 373.677002,299.0434875 373.053009,299.4074707 Z M373.053009,299.5114746 L373.7030029,300.5255127 C374.4049988,300.1484985 375.0289917,299.6674805 375.5490112,299.0954895 C376.0690002,299.602478 376.6929932,300.0704956 377.42099,300.5125122 L378.0840149,299.3554993 C377.42099,298.9655151 376.8359985,298.5234985 376.3160095,298.02948 C376.8359985,297.1455078 377.2130127,296.0794983 377.4339905,294.8444824 L377.4339905,293.713501 L373.053009,293.713501 L373.053009,290.1514893 L376.0169983,290.1514893 C375.9909973,290.9704895 375.9389954,291.477478 375.8739929,291.6854858 C375.79599,291.8674927 375.7049866,291.9714966 375.5750122,292.010498 C375.4580078,292.036499 375.2630005,292.0625 374.9899902,292.0625 C374.6390076,292.0625 374.3529968,292.0494995 374.144989,292.0494995 L374.5090027,293.2064819 L375.6010132,293.2064819 C376.4330139,293.2064819 376.9400024,292.9204712 377.0960083,292.3745117 C377.2520142,291.8024902 377.3429871,290.6455078 377.3429871,288.9295044 L371.7789917,288.9295044 L371.7789917,300.5385132 L373.053009,300.5385132 Z M374.3139954,294.9094849 L376.2380066,294.9094849 C376.0429993,295.7025146 375.769989,296.4174805 375.4190063,297.0415039 C374.9249878,296.40448 374.5610046,295.6895142 374.3139954,294.9094849 Z M382.7380066,288.4354858 C382.2179871,289.6834717 381.20401,290.7365112 379.6960144,291.5944824 L380.5150146,292.6734924 C381.0090027,292.3615112 381.4769897,292.036499 381.9060059,291.6854858 C382.3999939,292.088501 382.9330139,292.4655151 383.5050049,292.8164978 C382.1789856,293.2844849 380.67099,293.635498 378.9809875,293.8435059 L379.605011,295.1174927 C381.6589966,294.805481 383.4530029,294.2984924 385,293.6094971 C386.6119995,294.3634949 388.4190063,294.8444824 390.4339905,295.0784912 L391.0450134,293.8175049 C389.381012,293.661499 387.8599854,293.3364868 386.4949951,292.8424988 C387.5610046,292.2185059 388.4710083,291.4644775 389.2380066,290.5805054 L389.2380066,289.4884949 L383.7130127,289.4884949 C383.8559875,289.2284851 383.9859924,288.9425049 384.1159973,288.6434937 Z M384.9869995,292.1925049 C384.2070007,291.8024902 383.4790039,291.3344727 382.803009,290.7885132 L382.82901,290.7625122 L387.2229919,290.7625122 C386.5599976,291.3084717 385.8190002,291.7764893 384.9869995,292.1925049 Z M383.9989929,294.3504944 C383.9859924,294.7924805 383.946991,295.2084961 383.868988,295.6115112 L379.8909912,295.6115112 L379.8909912,296.8334961 L383.4530029,296.8334961 C383.375,296.963501 383.2969971,297.1065063 383.2059937,297.2495117 C382.5690002,298.1204834 381.1910095,298.8615112 379.0849915,299.4724731 L379.9819946,300.5775146 C382.3999939,299.7974854 383.92099,298.8355103 384.5450134,297.6784973 C384.7009888,297.4184875 384.8309937,297.1325073 384.9349976,296.8334961 L388.3410034,296.8334961 C388.3150024,297.9124756 388.2109985,298.5755005 388.0419922,298.8355103 C387.8859863,299.082489 387.5090027,299.2124939 386.8980103,299.2254944 C386.4559937,299.2124939 385.8970032,299.1864929 385.2080078,299.1474915 L385.54599,300.3695068 C386.1960144,300.4215088 386.7420044,300.4475098 387.196991,300.4475098 C388.1069946,300.4475098 388.743988,300.213501 389.1080017,299.7584839 C389.4719849,299.3034973 389.6669922,297.9254761 389.6929932,295.6115112 L385.2470093,295.6115112 C385.2990112,295.2214966 385.3380127,294.7924805 385.3380127,294.3504944 Z M393.2030029,288.9035034 L393.2030029,292.3615112 L397.45401,292.3615112 L397.45401,288.9035034 Z M396.2319946,291.2434998 L394.4249878,291.2434998 L394.4249878,290.0474854 L396.2319946,290.0474854 Z M398.571991,288.9035034 L398.571991,292.3615112 L401.1199951,292.3615112 L400.2489929,292.6474915 C400.4049988,292.8554993 400.5480042,293.0764771 400.70401,293.3234863 L397.9869995,293.3234863 C398.1170044,293.0894775 398.2340088,292.8424988 398.3380127,292.5954895 L397.0509949,292.4525146 C396.92099,292.7384949 396.7520142,293.0374756 396.5440063,293.3234863 L392.2149963,293.3234863 L392.2149963,294.5194702 L395.2829895,294.5194702 C394.4509888,295.0914917 393.3590088,295.5725098 391.9809875,295.9624939 L392.605011,297.0805054 C392.8649902,297.0025024 393.1119995,296.911499 393.3720093,296.8204956 L393.3720093,300.5385132 L394.5549927,300.5385132 L394.5549927,300.0444946 L396.3099976,300.0444946 L396.3099976,300.5385132 L397.506012,300.5385132 L397.506012,296.2224731 L394.776001,296.2224731 C395.7120056,295.7544861 396.4920044,295.1824951 397.1159973,294.5194702 L399.1960144,294.5194702 C399.7420044,295.1434937 400.4830017,295.7155151 401.4450073,296.2224731 L398.4809875,296.2224731 L398.4809875,300.5385132 L399.677002,300.5385132 L399.677002,300.0444946 L401.6530151,300.0444946 L401.6530151,300.5385132 L402.848999,300.5385132 L402.848999,296.8594971 C403.0310059,296.9375 403.2520142,297.0155029 403.4859924,297.0935059 L404.0320129,295.9364929 C402.6149902,295.5725098 401.5100098,295.1044922 400.7170105,294.5194702 L403.7850037,294.5194702 L403.7850037,293.3234863 L402.0299988,293.3234863 C401.8609924,292.9854736 401.6659851,292.6734924 401.4580078,292.3615112 L402.9530029,292.3615112 L402.9530029,288.9035034 Z M401.7309875,291.2434998 L399.7940063,291.2434998 L399.7940063,290.0474854 L401.7309875,290.0474854 Z M394.5549927,298.9005127 L394.5549927,297.3405151 L396.3099976,297.3405151 L396.3099976,298.9005127 Z M399.677002,298.9005127 L399.677002,297.3405151 L401.6530151,297.3405151 L401.6530151,298.9005127 Z M404.5,299.1734924" style="fill:rgb(255,255,255);stroke:none" clip-path="url(#clip10)" />
<clipPath id="clip11"><path d="M38,358 L83,358 L83,403 L38,403 L38,358 Z" /></clipPath>
<path d="M81,380 C81,368.4020081 71.5979767,359 60,359 C48.4020195,359 39,368.4020081 39,380 C39,391.5979919 48.4020195,401 60,401 C71.5979767,401 81,391.5979919 81,380 Z M81,380" style="fill:rgb(255,3,3);stroke:none" clip-path="url(#clip11)" />
<clipPath id="clip12"><path d="M52,369 L69,369 L69,392 L52,392 L52,369 Z" /></clipPath>
<path d="M64.1164551,385.1401367 L61.6154785,385.1401367 L57.5783691,378.1196289 L57.5212402,378.1196289 C57.6016464,379.3595581 57.6418457,380.243988 57.6418457,380.7729492 L57.6418457,385.1401367 L55.8835449,385.1401367 L55.8835449,375.8598633 L58.3654785,375.8598633 L62.3962402,382.8105469 L62.4406738,382.8105469 C62.3771973,381.6044922 62.345459,380.7518005 62.345459,380.2524414 L62.345459,375.8598633 L64.1164551,375.8598633 Z M65.2844238,385.1401367" style="fill:rgb(255,255,255);stroke:none" clip-path="url(#clip12)" />
<clipPath id="clip13"><path d="M32,475 L91,475 L91,534 L32,534 L32,475 Z" /></clipPath>
<path d="M89,504 C89,488.5360413 76.463974,476 61,476 C45.536026,476 33,488.5360413 33,504 C33,519.4639893 45.536026,532 61,532 C76.463974,532 89,519.4639893 89,504 Z M89,504" style="fill:rgb(75,172,198);stroke:none" clip-path="url(#clip13)" />
<clipPath id="clip14"><path d="M44,493 L79,493 L79,516 L44,516 L44,493 Z" /></clipPath>
<path d="M53.0263672,505.0681152 C53.0263672,505.9060059 52.7248573,506.5661621 52.1218262,507.048584 C51.518795,507.5310059 50.6798553,507.7722168 49.6049805,507.7722168 C48.6147423,507.7722168 47.7387733,507.5860291 46.9770508,507.213623 L46.9770508,505.385498 C47.6033554,505.6647949 48.1333809,505.8615723 48.5671387,505.9758301 C49.0008965,506.0900879 49.3976212,506.1472168 49.7573242,506.1472168 C50.1889648,506.1472168 50.5200996,506.0646973 50.7507324,505.8996582 C50.9813652,505.7346191 51.0966797,505.4891663 51.0966797,505.1633301 C51.0966797,504.9813538 51.0458984,504.8194885 50.9443359,504.6777344 C50.8427734,504.5359802 50.6936035,504.3995056 50.4968262,504.2683105 C50.3000488,504.1371155 49.8990936,503.9276428 49.2939453,503.6398926 C48.7268829,503.373291 48.3015976,503.1172791 48.0180664,502.8718262 C47.7345352,502.6263733 47.5081406,502.3407288 47.3388672,502.0148926 C47.1695938,501.6890564 47.0849609,501.308197 47.0849609,500.8723145 C47.0849609,500.0513611 47.3631973,499.4060059 47.9196777,498.9362793 C48.4761581,498.4665527 49.2452774,498.2316895 50.2270508,498.2316895 C50.7094765,498.2316895 51.1696777,498.2888184 51.607666,498.4030762 C52.0456543,498.517334 52.5037422,498.6781311 52.9819336,498.885498 L52.347168,500.4152832 C51.852047,500.2121582 51.442627,500.0704041 51.1188965,499.9899902 C50.795166,499.9095764 50.4767265,499.8693848 50.1635742,499.8693848 C49.7911758,499.8693848 49.5055351,499.9561462 49.3066406,500.1296387 C49.1077461,500.3031311 49.0083008,500.529541 49.0083008,500.8088379 C49.0083008,500.9823303 49.0485001,501.1336365 49.1289063,501.2626953 C49.2093124,501.3917542 49.3373184,501.5166016 49.5129395,501.637207 C49.6885605,501.7578125 50.1043243,501.9747009 50.7602539,502.2878418 C51.6277695,502.7025452 52.2223282,503.1183167 52.5439453,503.5351563 C52.8655624,503.9519958 53.0263672,504.4629822 53.0263672,505.0681152 Z M57.3857422,506.2297363 C57.7242851,506.2297363 58.1305313,506.1556702 58.6044922,506.0075684 L58.6044922,507.4484863 C58.1220665,507.6643066 57.5296249,507.7722168 56.8271484,507.7722168 C56.0527306,507.7722168 55.4888535,507.5765076 55.135498,507.1850586 C54.7821426,506.7936096 54.6054688,506.2064514 54.6054688,505.423584 L54.6054688,502.0021973 L53.6787109,502.0021973 L53.6787109,501.1833496 L54.7451172,500.5358887 L55.3037109,499.0378418 L56.5415039,499.0378418 L56.5415039,500.548584 L58.5283203,500.548584 L58.5283203,502.0021973 L56.5415039,502.0021973 L56.5415039,505.423584 C56.5415039,505.6986389 56.6187325,505.9017639 56.7731934,506.032959 C56.9276543,506.1641541 57.1318359,506.2297363 57.3857422,506.2297363 Z M61.9384766,504.0842285 C61.9384766,504.7867126 62.053791,505.3177795 62.2844238,505.6774902 C62.5150566,506.0372009 62.8906212,506.217041 63.4111328,506.217041 C63.9274101,506.217041 64.2987442,506.0382385 64.5251465,505.6806641 C64.7515488,505.3230896 64.8647461,504.7909241 64.8647461,504.0842285 C64.8647461,503.3817444 64.7504883,502.8548889 64.5219727,502.5036621 C64.293457,502.1524353 63.9189491,501.9768066 63.3984375,501.9768066 C62.8821602,501.9768066 62.5097656,502.1513672 62.28125,502.5004883 C62.0527344,502.8496094 61.9384766,503.377533 61.9384766,504.0842285 Z M66.8452148,504.0842285 C66.8452148,505.239502 66.5405273,506.1429749 65.9311523,506.7946777 C65.3217773,507.4463806 64.4733124,507.7722168 63.3857422,507.7722168 C62.704422,507.7722168 62.1035194,507.6230469 61.5830078,507.324707 C61.0624962,507.0263672 60.6625977,506.5979004 60.3833008,506.0393066 C60.1040039,505.4807129 59.9643555,504.82901 59.9643555,504.0842285 C59.9643555,502.9247131 60.2669258,502.0233459 60.8720703,501.380127 C61.4772148,500.736908 62.3277931,500.4152832 63.4238281,500.4152832 C64.1051483,500.4152832 64.7060547,500.563385 65.2265625,500.8596191 C65.7470703,501.1558533 66.1469727,501.5811462 66.4262695,502.135498 C66.7055664,502.6898499 66.8452148,503.339447 66.8452148,504.0842285 Z M72.293457,507.7722168 C71.4597931,507.7722168 70.8059921,507.469635 70.3320313,506.864502 L70.2304688,506.864502 C70.2981796,507.4569397 70.3320313,507.7997131 70.3320313,507.8928223 L70.3320313,510.7683105 L68.3959961,510.7683105 L68.3959961,500.548584 L69.9702148,500.548584 L70.2431641,501.4689941 L70.3320313,501.4689941 C70.7848358,500.76651 71.4555588,500.4152832 72.3442383,500.4152832 C73.1821289,500.4152832 73.8380508,500.7390137 74.3120117,501.3864746 C74.7859726,502.0339355 75.0229492,502.9331665 75.0229492,504.0842285 C75.0229492,504.8417053 74.9118652,505.4997559 74.6896973,506.0583496 C74.4675293,506.6169434 74.151207,507.0422363 73.7407227,507.3342285 C73.3302383,507.6262207 72.8478241,507.7722168 72.293457,507.7722168 Z M71.722168,501.9641113 C71.2439728,501.9641113 70.8948593,502.1111755 70.6748047,502.4052734 C70.4547501,502.6993713 70.3404922,503.184967 70.3320313,503.8620605 L70.3320313,504.0715332 C70.3320313,504.833252 70.4452286,505.3791504 70.6716309,505.7092285 C70.8980331,506.0393066 71.2566681,506.2043457 71.7475586,506.2043457 C72.6150742,506.2043457 73.0488281,505.4891968 73.0488281,504.0588379 C73.0488281,503.3605957 72.9419785,502.8369141 72.7282715,502.487793 C72.5145645,502.1386719 72.1791992,501.9641113 71.722168,501.9641113 Z M75.6069336,507.6452637" style="fill:rgb(255,255,255);stroke:none" clip-path="url(#clip14)" />
<clipPath id="clip15"><path d="M266,357 L402,357 L402,432 L266,432 L266,357 Z" /></clipPath>
<path d="M333.5,360 L269,394 L333.5,428 L398,394 Z M333.5,360" style="fill:rgb(127,127,127);stroke:none" clip-path="url(#clip15)" />
<clipPath id="clip16"><path d="M266,357 L402,357 L402,432 L266,432 L266,357 Z" /></clipPath>
<path d="M333.5,360 L269,394 L333.5,428 L398,394 Z M333.5,360" style="fill:none;stroke:rgb(158,158,158);stroke-width:4" clip-path="url(#clip16)" />
<clipPath id="clip17"><path d="M292,383 L376,383 L376,406 L292,406 L292,383 Z" /></clipPath>
<path d="M296.5800171,392.4134827 L296.5800171,393.2324829 L300.4539795,393.2324829 L300.4539795,394.4934998 L295.1369934,394.4934998 L295.1369934,395.3125 L303.2489929,395.3125 L303.2489929,396.5604858 L295.9039917,396.5604858 L295.9039917,397.3794861 L303.2489929,397.3794861 L303.2489929,399.1994934 C303.2489929,399.5115051 303.0670166,399.680481 302.7030029,399.680481 C302.1569824,399.680481 301.571991,399.65448 300.947998,399.6154785 L301.1430054,400.4994812 L303.0280151,400.4994812 C303.7949829,400.4994812 304.1849976,400.135498 304.1849976,399.4205017 L304.1849976,397.3794861 L306.1350098,397.3794861 L306.1350098,396.5604858 L304.1849976,396.5604858 L304.1849976,395.3125 L306.6940002,395.3125 L306.6940002,394.4934998 L301.3900146,394.4934998 L301.3900146,393.2324829 L305.2119751,393.2324829 L305.2119751,392.4134827 L301.3900146,392.4134827 L301.3900146,391.5944824 L300.4539795,391.5944824 L300.4539795,392.4134827 Z M298.1010132,397.7434998 L297.3469849,398.2114868 C298.0230103,398.8874817 298.5690002,399.4985046 298.9719849,400.0574951 L299.7000122,399.5505066 C299.3359985,399.0304871 298.8029785,398.4194946 298.1010132,397.7434998 Z M297.0480042,390.3204956 L297.5679932,390.3204956 C297.9320068,390.8274841 298.257019,391.3475037 298.5169983,391.8934937 L299.3619995,391.5814819 C299.1539917,391.1914978 298.8809814,390.7754822 298.5429993,390.3204956 L300.7399902,390.3204956 L300.7399902,389.5274963 L297.4119873,389.5274963 C297.5159912,389.2674866 297.6069946,388.9945068 297.7109985,388.7084961 L296.8269958,388.5134888 C296.4760132,389.5794983 295.9169922,390.5675049 295.1629944,391.4645081 L295.9689941,391.9714966 C296.3720093,391.4775085 296.7359924,390.9184875 297.0480042,390.3204956 Z M302.3259888,390.2814941 L303.0930176,390.2814941 C303.4830017,390.7884827 303.8079834,391.3085022 304.0809937,391.8544922 L304.8869934,391.555481 C304.6920166,391.1654968 304.4190063,390.7364807 304.0679932,390.2814941 L306.42099,390.2814941 L306.42099,389.4884949 L302.677002,389.4884949 C302.7680054,389.2284851 302.8590088,388.9555054 302.9370117,388.6824951 L302.0529785,388.5004883 C301.7929993,389.4104919 301.3900146,390.2294922 300.8179932,390.98349 L301.5979919,391.4775085 C301.8580017,391.1134949 302.1049805,390.7234802 302.3259888,390.2814941 Z M310.6329956,388.5004883 C310.0610046,389.7355042 309.1640015,390.8274841 307.9160156,391.7894897 L308.1889954,392.6864929 C309.696991,391.5814819 310.776001,390.3074951 311.4519958,388.8775024 Z M311.1140137,391.4904785 C310.4639893,392.9465027 309.4370117,394.2464905 308.0329895,395.3775024 L308.3059998,396.2745056 C308.8649902,395.8454895 309.3850098,395.3905029 309.8529968,394.8964844 L309.8529968,400.4344788 L310.75,400.4344788 L310.75,393.8565063 C311.2180176,393.2324829 311.6080017,392.5694885 311.9199829,391.8674927 Z M315.4949951,388.5524902 L315.4949951,389.9694824 L312.5960083,389.9694824 L312.5960083,390.8144836 L315.4949951,390.8144836 L315.4949951,392.4394836 L312.1019897,392.4394836 L312.1019897,393.2974854 L319.8499756,393.2974854 L319.8499756,392.4394836 L316.3919983,392.4394836 L316.3919983,390.8144836 L319.3170166,390.8144836 L319.3170166,389.9694824 L316.3919983,389.9694824 L316.3919983,388.5524902 Z M312.1669922,394.8834839 L312.1669922,395.7544861 L317.2109985,395.7544861 L317.2109985,398.8614807 C317.2109985,399.3034973 316.9899902,399.5375061 316.5610046,399.5375061 C316.0150146,399.5375061 315.4299927,399.5115051 314.8320007,399.4725037 L315.039978,400.3695068 L316.8859863,400.3695068 C317.7180176,400.3695068 318.1470032,399.9404907 318.1470032,399.0954895 L318.1470032,395.7544861 L319.6679993,395.7544861 L319.6679993,394.8834839 L318.1470032,394.8834839 L318.1470032,393.9214783 L317.2109985,393.9214783 L317.2109985,394.8834839 Z M313.7009888,396.2615051 L312.9729919,396.7164917 C313.6749878,397.4444885 314.2340088,398.1204834 314.6499939,398.7185059 L315.3779907,398.1984863 C314.9879761,397.6524963 314.4290161,397.0025024 313.7009888,396.2615051 Z M327.3509827,392.4004822 L327.3509827,393.2064819 L331.0039978,393.2064819 L331.0039978,392.4004822 C331.4459839,392.8815002 331.9400024,393.3364868 332.4989929,393.7655029 L333.006012,392.9855042 C331.3939819,391.7374878 330.25,390.2944946 329.6000061,388.6304932 L328.7420044,388.6304932 C327.9620056,390.4375 326.8309937,391.9064941 325.375,393.0375061 L325.868988,393.7915039 C326.3890076,393.3884888 326.8829956,392.9205017 327.3509827,392.4004822 Z M330.9649963,392.3484802 L327.3899841,392.3484802 C328.0660095,391.5684814 328.651001,390.6325073 329.17099,389.5404968 C329.6130066,390.5545044 330.2109985,391.4904785 330.9649963,392.3484802 Z M325.7519836,399.1474915 L325.7519836,400.0444946 L332.8500061,400.0444946 L332.8500061,399.1474915 L330.8869934,399.1474915 C331.4069824,397.7174988 331.8359985,396.0794983 332.2000122,394.23349 L331.303009,394.0124817 C330.9129944,396.0534973 330.4710083,397.7695007 329.9769897,399.1474915 Z M326.947998,394.3894958 L326.1419983,394.6625061 C326.5969849,395.832489 326.973999,397.0415039 327.2600098,398.3154907 L328.0660095,398.1204834 C327.7279968,396.7164917 327.3639832,395.4685059 326.947998,394.3894958 Z M328.9500122,394.0124817 L328.1439819,394.259491 C328.5339966,395.3775024 328.8460083,396.5474854 329.0799866,397.7565002 L329.8989868,397.5614929 C329.6130066,396.2225037 329.3009949,395.0394897 328.9500122,394.0124817 Z M324.29599,390.0344849 L323.723999,394.5325012 L322.1900024,394.5325012 L322.7099915,390.957489 L321.8519897,390.9054871 L321.2409973,395.364502 L324.5559998,395.364502 C324.5559998,397.3404846 324.4779968,398.5234985 324.3479919,398.9394836 C324.2179871,399.3294983 323.8410034,399.5375061 323.2170105,399.5375061 C323.0350037,399.5375061 322.7099915,399.5115051 322.2550049,399.4595032 L322.5019836,400.2915039 C322.8139954,400.3175049 323.1260071,400.3305054 323.4249878,400.3305054 C324.243988,400.3305054 324.7770081,400.0964966 325.0369873,399.65448 C325.2839966,399.1994934 325.4140015,397.4964905 325.4140015,394.5325012 L324.6080017,394.5325012 L325.2319946,389.1764832 L321.1499939,389.1764832 L321.1499939,390.0344849 Z M323.8150024,396.5214844 C322.9570007,396.8334961 321.9429932,397.0805054 320.7990112,397.2754822 L320.9159851,398.1594849 C321.9949951,397.9515076 322.9570007,397.6914978 323.8150024,397.3664856 Z M342.0539856,390.1124878 L342.0539856,399.134491 L340.2340088,399.134491 L340.2340088,392.2575073 L339.3240051,392.2575073 L339.3240051,399.134491 L337.9979858,399.134491 L337.9979858,400.0574951 L345.95401,400.0574951 L345.95401,399.134491 L343.0029907,399.134491 L343.0029907,394.6365051 L345.5119934,394.6365051 L345.5119934,393.7655029 L343.0029907,393.7655029 L343.0029907,390.1124878 L345.6940002,390.1124878 L345.6940002,389.1894836 L338.401001,389.1894836 L338.401001,390.1124878 Z M335.5799866,388.7084961 L334.9299927,389.3194885 C335.8399963,390.0344849 336.5549927,390.7104797 337.0879822,391.3605042 L337.7250061,390.7104797 C337.1399841,390.0474854 336.4249878,389.384491 335.5799866,388.7084961 Z M333.993988,392.556488 L333.993988,393.4534912 L335.8789978,393.4534912 L335.8789978,398.510498 C335.8789978,398.7185059 335.7879944,398.9004822 335.6059875,399.056488 L335.9700012,399.9014893 C336.8150024,399.3164978 337.6080017,398.6535034 338.3619995,397.9255066 L338.1149902,396.9244995 C337.6340027,397.3924866 337.1919861,397.8085022 336.776001,398.1724854 L336.776001,392.556488 Z M351.7779846,397.8995056 C350.4519958,398.3804932 348.9179993,398.7705078 347.1499939,399.056488 L347.2669983,399.9664917 C348.9570007,399.65448 350.4519958,399.2644958 351.7779846,398.7835083 Z M349.3729858,388.5394897 C348.8529968,390.0864868 348.2290039,391.4515076 347.5010071,392.6474915 C347.3840027,392.8164978 347.2539978,392.9335022 347.1109924,392.9985046 L347.3450012,393.8565063 C348.098999,393.7525024 348.8399963,393.6484985 349.5809937,393.5314941 C348.8529968,394.753479 348.2420044,395.6114807 347.7479858,396.1184998 C347.631012,396.2225037 347.4880066,396.3135071 347.3190002,396.3914795 L347.5660095,397.2364807 C348.8659973,397.0675049 350.2179871,396.7424927 351.6220093,396.2615051 L351.6220093,395.4295044 C350.6600037,395.7544861 349.6849976,396.0144958 348.696991,396.2095032 C349.4899902,395.2734985 350.4779968,393.713501 351.6610107,391.5164795 L350.8420105,391.2174988 C350.5820007,391.7114868 350.321991,392.1925049 350.0750122,392.6604919 C349.4509888,392.7644958 348.8399963,392.8554993 348.2290039,392.9335022 C348.9049988,391.9194946 349.5809937,390.5675049 350.243988,388.8775024 Z M351.6220093,390.1904907 L351.6220093,391.1004944 L354.7290039,391.1004944 L354.7290039,393.0245056 L352.0509949,393.0245056 L352.0509949,393.9344788 L358.394989,393.9344788 L358.394989,393.0245056 L355.678009,393.0245056 L355.678009,391.1004944 L358.7720032,391.1004944 L358.7720032,390.1904907 L355.678009,390.1904907 L355.678009,388.6174927 L354.7290039,388.6174927 L354.7290039,390.1904907 Z M358.0180054,395.2344971 L352.4670105,395.2344971 L352.4670105,400.4604797 L353.3899841,400.4604797 L353.3899841,399.8364868 L357.1080017,399.8364868 L357.1080017,400.4604797 L358.0180054,400.4604797 Z M353.3899841,398.9524841 L353.3899841,396.1184998 L357.1080017,396.1184998 L357.1080017,398.9524841 Z M361.5539856,389.0984802 L361.5539856,394.1294861 L365.4410095,394.1294861 L365.4410095,395.3125 L360.2669983,395.3125 L360.2669983,396.1965027 L364.5960083,396.1965027 C363.6470032,397.4444885 362.1130066,398.4714966 359.993988,399.2774963 L360.5270081,400.135498 C362.7890015,399.10849 364.401001,397.7955017 365.3890076,396.1965027 L365.4410095,396.1965027 L365.4410095,400.4864807 L366.4029846,400.4864807 L366.4029846,396.1965027 L366.4679871,396.1965027 C367.3779907,397.6524963 368.9639893,398.9654846 371.2259827,400.1484985 L371.8630066,399.3294983 C369.7049866,398.4194946 368.1579895,397.3664856 367.2349854,396.1965027 L371.5769958,396.1965027 L371.5769958,395.3125 L366.4029846,395.3125 L366.4029846,394.1294861 L370.2250061,394.1294861 L370.2250061,389.0984802 Z M369.302002,393.3104858 L366.4029846,393.3104858 L366.4029846,392.0494995 L369.302002,392.0494995 Z M365.4410095,393.3104858 L362.4899902,393.3104858 L362.4899902,392.0494995 L365.4410095,392.0494995 Z M362.4899902,391.2304993 L362.4899902,389.930481 L365.4410095,389.930481 L365.4410095,391.2304993 Z M366.4029846,389.930481 L369.302002,389.930481 L369.302002,391.2304993 L366.4029846,391.2304993 Z M372.4219971,399.1994934" style="fill:rgb(255,255,255);stroke:none" clip-path="url(#clip17)" />
<clipPath id="clip18"><path d="M312,483 L357,483 L357,528 L312,528 L312,483 Z" /></clipPath>
<path d="M355,505 C355,493.4020081 345.5979919,484 334,484 C322.4020081,484 313,493.4020081 313,505 C313,516.5980225 322.4020081,526 334,526 C345.5979919,526 355,516.5980225 355,505 Z M355,505" style="fill:rgb(255,3,3);stroke:none" clip-path="url(#clip18)" />
<clipPath id="clip19"><path d="M326,494 L343,494 L343,517 L326,517 L326,494 Z" /></clipPath>
<path d="M338.1164551,510.1401367 L335.6154785,510.1401367 L331.5783691,503.1196289 L331.5212402,503.1196289 C331.6016541,504.3595581 331.6418457,505.243988 331.6418457,505.7729492 L331.6418457,510.1401367 L329.8835449,510.1401367 L329.8835449,500.8598633 L332.3654785,500.8598633 L336.3962402,507.8105469 L336.4406738,507.8105469 C336.3771973,506.6044922 336.345459,505.7518005 336.345459,505.2524414 L336.345459,500.8598633 L338.1164551,500.8598633 Z M339.2844238,510.1401367" style="fill:rgb(255,255,255);stroke:none" clip-path="url(#clip19)" />
<clipPath id="clip20"><path d="M426,371 L469,371 L469,414 L426,414 L426,371 Z" /></clipPath>
<path d="M467,392 C467,380.9543152 458.0456848,372 447,372 C435.9543152,372 427,380.9543152 427,392 C427,403.0456848 435.9543152,412 447,412 C458.0456848,412 467,403.0456848 467,392 Z M467,392" style="fill:rgb(3,128,3);stroke:none" clip-path="url(#clip20)" />
<clipPath id="clip21"><path d="M440,381 L455,381 L455,404 L440,404 L440,381 Z" /></clipPath>
<path d="M447,391.6811523 L448.9360352,387.8598633 L451.0561523,387.8598633 L447.9775391,393.5283203 L447.9775391,397.1401367 L446.0224609,397.1401367 L446.0224609,393.5917969 L442.9438477,387.8598633 L445.0766602,387.8598633 Z M451.0561523,397.1401367" style="fill:rgb(255,255,255);stroke:none" clip-path="url(#clip21)" />
<clipPath id="clip22"><path d="M519,378 L640,378 L640,415 L519,415 L519,378 Z" /></clipPath>
<path d="M528,379 C523.5817261,379 520,382.5817261 520,387 L520,405 C520,409.4182739 523.5817261,413 528,413 L630,413 C634.4182739,413 638,409.4182739 638,405 L638,387 C638,382.5817261 634.4182739,379 630,379 Z M528,379" style="fill:rgb(3,128,3);stroke:none" clip-path="url(#clip22)" />
<clipPath id="clip23"><path d="M531,385 L628,385 L628,408 L531,408 L531,385 Z" /></clipPath>
<path d="M540.5654907,394.5629883 L540.5654907,395.7980042 L541.9954834,395.7980042 C541.6314697,396.8249817 541.0725098,397.7479858 540.3184814,398.5669861 L540.838501,399.8930054 C541.5534668,398.9309998 542.1125488,397.8389893 542.5025024,396.6300049 L542.5025024,400.4909973 L543.8154907,400.4909973 L543.8154907,397.2409973 C544.2055054,397.7609863 544.6734619,398.4239807 545.1934814,399.2299805 L545.9475098,398.0859985 C545.2325439,397.3320007 544.5175171,396.6430054 543.8154907,396.0319824 L543.8154907,395.7980042 L545.713501,395.7980042 L545.713501,394.5629883 L543.8154907,394.5629883 L543.8154907,390.6759949 L542.5025024,390.6759949 L542.5025024,394.5629883 Z M538.7974854,390.8710022 L538.7974854,402.0899963 L546.0385132,402.0899963 L546.0385132,400.815979 L540.0975342,400.815979 L540.0975342,390.8710022 Z M544.8554688,391.3519897 C544.6474609,392.3399963 544.3875122,393.1589966 544.088501,393.8089905 L545.0765381,394.1600037 C545.4144897,393.4320068 545.7005005,392.6000061 545.9215088,391.651001 Z M541.4234619,391.4949951 L540.3835449,391.8459778 C540.6954956,392.5870056 540.9685059,393.3540039 541.1765137,394.1600037 L542.1774902,393.9129944 C541.9434814,393.0029907 541.6965332,392.196991 541.4234619,391.4949951 Z M538.4854736,399.6849976 C537.2504883,400.1529846 535.8204956,400.5169983 534.1824951,400.8029785 L534.364502,402.1289978 C535.8984985,401.8299866 537.2764893,401.4400024 538.4854736,400.9589844 Z M536.1325073,390.4289856 C535.7164917,391.8200073 535.2225342,393.0939941 534.6505127,394.2510071 C534.4815063,394.4849854 534.2994995,394.6539917 534.0914917,394.7449951 L534.4165039,395.9799805 C535.0534668,395.8890076 535.6644897,395.7980042 536.2495117,395.7200012 C535.6774902,396.7339783 535.2094727,397.4360046 534.845459,397.8259888 C534.6895142,397.9819946 534.4945068,398.1119995 534.2474976,398.2160034 L534.6115112,399.4119873 C535.8074951,399.2559814 537.0944824,398.9570007 538.4465332,398.4889832 L538.4465332,397.2799988 C537.6795044,397.539978 536.9255371,397.7609863 536.1715088,397.9429932 C536.8735352,397.0069885 537.7315063,395.5509949 538.7585449,393.5749817 L537.588501,393.1329956 C537.3414917,393.6139832 537.1075439,394.0690002 536.8995361,394.4979858 C536.4835205,394.5629883 536.0675049,394.6149902 535.6514893,394.6669922 C536.2495117,393.6919861 536.8344727,392.4440002 537.4064941,390.9230042 Z M551.2514648,399.5419922 C550.1335449,399.9839783 548.8074951,400.321991 547.2994995,400.5820007 L547.4685059,401.9079895 C548.8724976,401.6349792 550.1335449,401.2709961 551.2514648,400.815979 Z M549.0155029,390.4549866 C548.6254883,391.8070068 548.1834717,393.0419922 547.6635132,394.1600037 C547.4945068,394.4069824 547.3125,394.5759888 547.1044922,394.6539917 L547.4295044,395.8890076 C548.0014648,395.7980042 548.5605469,395.7070007 549.1065063,395.6289978 C548.5605469,396.552002 548.1185303,397.2019958 547.7675171,397.565979 C547.5985107,397.7349854 547.3905029,397.8649902 547.1564941,397.9559937 L547.5075073,399.1779785 C548.6254883,399.0350037 549.8215332,398.7489929 551.095459,398.3200073 L551.095459,397.0979919 C550.4324951,397.3320007 549.7824707,397.5269775 549.1455078,397.6699829 C549.8215332,396.7989807 550.6665039,395.4339905 551.680542,393.5879822 L550.4324951,393.1199951 L549.7695313,394.4199829 L548.6514893,394.5759888 C549.2105103,393.6399841 549.7564697,392.4309998 550.3024902,390.9750061 Z M552.1484985,391.2089844 L552.1484985,392.4309998 L554.6054688,392.4309998 L554.6054688,393.223999 L551.7325439,393.223999 L551.7325439,394.4719849 L557.4265137,394.4719849 C557.2445068,395.0959778 557.036499,395.6549988 556.7894897,396.1489868 L558.0894775,396.526001 C558.3754883,395.7070007 558.6224976,394.8880005 558.8045044,394.0690002 L558.8045044,393.223999 L555.9315186,393.223999 L555.9315186,392.4309998 L558.5704956,392.4309998 L558.5704956,391.2089844 L555.9315186,391.2089844 L555.9315186,390.4809875 L554.6054688,390.4809875 L554.6054688,391.2089844 Z M551.4594727,397.9039917 L551.4594727,399.1519775 L554.5925293,399.1519775 C554.4885254,399.3989868 554.3585205,399.6329956 554.2025146,399.8540039 C553.7344971,400.4779968 552.8115234,400.9979858 551.4594727,401.4140015 L552.213501,402.6099854 C553.6174927,402.1679993 554.6314697,401.5440063 555.2554932,400.7380066 L555.3984985,400.5169983 C556.4384766,401.0499878 557.4525146,401.7519836 558.4664917,402.6229858 L559.2335205,401.4400024 C558.2194824,400.6860046 557.1015015,400.0489807 555.8925171,399.5029907 L556.0095215,399.1519775 L559.1165161,399.1519775 L559.1165161,397.9039917 L556.2564697,397.9039917 C556.2824707,397.6959839 556.2955322,397.4750061 556.3084717,397.2409973 L556.3084717,394.7579956 L554.9954834,394.7579956 L554.9954834,397.2409973 C554.9825439,397.4620056 554.956543,397.6829834 554.930542,397.9039917 L553.4615479,397.9039917 L553.9945068,397.071991 C553.4355469,396.5910034 552.8115234,396.1879883 552.1224976,395.8630066 L551.4985352,396.7859802 C552.0704956,397.071991 552.6295166,397.4360046 553.1755371,397.9039917 Z M553.1364746,394.5369873 L552.5385132,395.42099 C553.1235352,395.7070007 553.6954956,396.0969849 554.2675171,396.6040039 L554.8914795,395.6549988 C554.3585205,395.2129822 553.7734985,394.848999 553.1364746,394.5369873 Z M562.7564697,395.394989 L571.9475098,395.394989 L571.9475098,394.0690002 L562.7564697,394.0690002 L562.7564697,392.6130066 C565.9024658,392.5350037 568.7365112,392.2619934 571.2585449,391.7940063 L570.595459,390.571991 C567.9174805,391.09198 564.8494873,391.3649902 561.4174805,391.3909912 L561.4174805,395.4859924 C561.3525391,398.0339966 560.8845215,400.0229797 560.0264893,401.4530029 L561.0405273,402.5189819 C562.1065063,400.7769775 562.6784668,398.4239807 562.7564697,395.4859924 Z M570.9985352,396.8119812 L563.6535034,396.8119812 L563.6535034,402.5449829 L565.0184937,402.5449829 L565.0184937,402.0509949 L569.6335449,402.0509949 L569.6335449,402.5449829 L570.9985352,402.5449829 Z M565.0184937,400.7250061 L565.0184937,398.1119995 L569.6335449,398.1119995 L569.6335449,400.7250061 Z M577.2515259,399.5419922 C576.1334839,399.9839783 574.8074951,400.321991 573.2994995,400.5820007 L573.4685059,401.9079895 C574.8724976,401.6349792 576.1334839,401.2709961 577.2515259,400.815979 Z M575.0155029,390.4549866 C574.6254883,391.8070068 574.1834717,393.0419922 573.6635132,394.1600037 C573.4945068,394.4069824 573.3125,394.5759888 573.1044922,394.6539917 L573.4295044,395.8890076 C574.0014648,395.7980042 574.5605469,395.7070007 575.1065063,395.6289978 C574.5605469,396.552002 574.1185303,397.2019958 573.7675171,397.565979 C573.5985107,397.7349854 573.3905029,397.8649902 573.1564941,397.9559937 L573.5075073,399.1779785 C574.6254883,399.0350037 575.8215332,398.7489929 577.09552,398.3200073 L577.09552,397.0979919 C576.4324951,397.3320007 575.7824707,397.5269775 575.1455078,397.6699829 C575.8215332,396.7989807 576.6665039,395.4339905 577.680481,393.5879822 L576.4324951,393.1199951 L575.7695313,394.4199829 L574.6514893,394.5759888 C575.2105103,393.6399841 575.7564697,392.4309998 576.3024902,390.9750061 Z M578.1484985,391.2089844 L578.1484985,392.4309998 L580.6055298,392.4309998 L580.6055298,393.223999 L577.7324829,393.223999 L577.7324829,394.4719849 L583.4265137,394.4719849 C583.2445068,395.0959778 583.036499,395.6549988 582.7894897,396.1489868 L584.0894775,396.526001 C584.3754883,395.7070007 584.6224976,394.8880005 584.8045044,394.0690002 L584.8045044,393.223999 L581.9315186,393.223999 L581.9315186,392.4309998 L584.5704956,392.4309998 L584.5704956,391.2089844 L581.9315186,391.2089844 L581.9315186,390.4809875 L580.6055298,390.4809875 L580.6055298,391.2089844 Z M577.4595337,397.9039917 L577.4595337,399.1519775 L580.5925293,399.1519775 C580.4885254,399.3989868 580.3585205,399.6329956 580.2025146,399.8540039 C579.7344971,400.4779968 578.8115234,400.9979858 577.4595337,401.4140015 L578.213501,402.6099854 C579.6174927,402.1679993 580.6315308,401.5440063 581.2554932,400.7380066 L581.3984985,400.5169983 C582.4384766,401.0499878 583.4525146,401.7519836 584.4664917,402.6229858 L585.2335205,401.4400024 C584.2194824,400.6860046 583.1015015,400.0489807 581.8925171,399.5029907 L582.0095215,399.1519775 L585.1165161,399.1519775 L585.1165161,397.9039917 L582.2565308,397.9039917 C582.2825317,397.6959839 582.2955322,397.4750061 582.3085327,397.2409973 L582.3085327,394.7579956 L580.9954834,394.7579956 L580.9954834,397.2409973 C580.9824829,397.4620056 580.9564819,397.6829834 580.930481,397.9039917 L579.4614868,397.9039917 L579.9945068,397.071991 C579.4354858,396.5910034 578.8115234,396.1879883 578.1224976,395.8630066 L577.4984741,396.7859802 C578.0704956,397.071991 578.6295166,397.4360046 579.1754761,397.9039917 Z M579.1364746,394.5369873 L578.5385132,395.42099 C579.1234741,395.7070007 579.6954956,396.0969849 580.2675171,396.6040039 L580.8914795,395.6549988 C580.3585205,395.2129822 579.7734985,394.848999 579.1364746,394.5369873 Z M591.0184937,392.6130066 L589.0424805,392.6130066 C589.2764893,392.0149841 589.4714966,391.3519897 589.614502,390.6499939 L588.2495117,390.4679871 C588.1455078,391.2089844 587.9765015,391.9239807 587.7424927,392.6130066 L586.4945068,392.6130066 L586.4945068,402.1029968 L587.7944946,402.1029968 L587.7944946,401.0759888 L589.7185059,401.0759888 L589.7185059,401.7259827 L591.0184937,401.7259827 Z M587.7944946,399.8280029 L587.7944946,397.3710022 L589.7185059,397.3710022 L589.7185059,399.8280029 Z M587.7944946,396.1619873 L587.7944946,393.8869934 L589.7185059,393.8869934 L589.7185059,396.1619873 Z M593.3845215,395.7720032 L592.27948,396.4609985 C593.0855103,397.5010071 593.7354736,398.4499817 594.2164917,399.3079834 L595.3085327,398.5539856 C594.8535156,397.7479858 594.2164917,396.8249817 593.3845215,395.7720032 Z M597.713501,392.6130066 L593.7614746,392.6130066 C593.9564819,391.9889832 594.1254883,391.3259888 594.2554932,390.6239929 L592.9165039,390.4549866 C592.6044922,392.2359924 592.0325317,393.743988 591.1744995,394.9660034 L591.9935303,396.0449829 C592.4744873,395.42099 592.8905029,394.7189941 593.2415161,393.9389954 L596.3875122,393.9389954 C596.3615112,397.617981 596.3225098,399.7630005 596.2445068,400.3869934 C596.1665039,400.8939819 595.8934937,401.1539917 595.4254761,401.1539917 C594.996521,401.1539917 594.489502,401.1279907 593.9174805,401.0889893 L594.2424927,402.3240051 C594.9185181,402.3760071 595.3864746,402.4019775 595.6464844,402.4019775 C596.7645264,402.4019775 597.3884888,401.946991 597.5184937,401.0369873 C597.6484985,399.9709778 597.713501,397.1629944 597.713501,392.6130066 Z M604.4215088,392.6779785 L604.4215088,400.4519958 L599.286499,400.4519958 L599.286499,401.7649841 L610.9215088,401.7649841 L610.9215088,400.4519958 L605.7994995,400.4519958 L605.7994995,392.6779785 L610.128479,392.6779785 L610.128479,391.3779907 L600.1055298,391.3779907 L600.1055298,392.6779785 Z M618.0715332,393.5229797 L618.4484863,393.5229797 L618.4484863,402.5709839 L619.8264771,402.5709839 L619.8264771,399.6719971 L623.4144897,399.6719971 L623.4144897,398.3589783 L619.8264771,398.3589783 L619.8264771,396.5780029 L623.4144897,396.5780029 L623.4144897,395.2519836 L619.8264771,395.2519836 L619.8264771,393.5229797 L623.9085083,393.5229797 L623.9085083,392.1839905 L618.6694946,392.1839905 C618.8515015,391.7030029 619.0335083,391.2089844 619.2155151,390.6889954 L617.8375244,390.3769836 C617.0574951,392.6130066 616.147522,394.3289795 615.1074829,395.5509949 L616.0825195,396.7209778 C616.8104858,395.8370056 617.4735107,394.7709961 618.0715332,393.5229797 Z M613.5214844,395.7720032 L613.5214844,402.5709839 L614.8994751,402.5709839 L614.8994751,393.821991 C615.4194946,392.9379883 615.8485107,392.0019836 616.1735229,391.0269775 L614.8864746,390.4289856 C614.2495117,392.3789978 613.2744751,394.0820007 611.9614868,395.5249939 L612.4165039,396.9809875 C612.8065186,396.5910034 613.1705322,396.1879883 613.5214844,395.7720032 Z M624.5975342,401.1799927" style="fill:rgb(255,255,255);stroke:none" clip-path="url(#clip23)" />
<clipPath id="clip24"><path d="M52,96 L78,96 L78,160 L52,160 L52,96 Z" /></clipPath>
<path d="M64.6837616,100.9996185 L64.8376083,156" style="fill:none;stroke:rgb(158,158,158);stroke-width:3" clip-path="url(#clip24)" />
<clipPath id="clip25"><path d="M52,96 L78,96 L78,160 L52,160 L52,96 Z" /></clipPath>
<path d="M59.8134003,147.3537598 L64.8376083,156 L69.8133621,147.3257904 Z M59.8134003,147.3537598" style="fill:rgb(158,158,158);stroke:none" clip-path="url(#clip25)" />
<clipPath id="clip26"><path d="M52,96 L78,96 L78,160 L52,160 L52,96 Z" /></clipPath>
<path d="M59.8134003,147.3537598 L64.8376083,156 L69.8133621,147.3257904 Z M59.8134003,147.3537598" style="fill:none;stroke:rgb(158,158,158);stroke-width:3" clip-path="url(#clip26)" />
<clipPath id="clip27"><path d="M50,190 L76,190 L76,270 L50,270 L50,190 Z" /></clipPath>
<path d="M62.1139221,194 L62.6986046,266.1672363" style="fill:none;stroke:rgb(119,147,60);stroke-width:3" clip-path="url(#clip27)" />
<clipPath id="clip28"><path d="M50,190 L76,190 L76,270 L50,270 L50,190 Z" /></clipPath>
<path d="M57.6286087,257.5477905 L62.6986046,266.1672363 L67.6282806,257.4667664 Z M57.6286087,257.5477905" style="fill:rgb(119,147,60);stroke:none" clip-path="url(#clip28)" />
<clipPath id="clip29"><path d="M50,190 L76,190 L76,270 L50,270 L50,190 Z" /></clipPath>
<path d="M57.6286087,257.5477905 L62.6986046,266.1672363 L67.6282806,257.4667664 Z M57.6286087,257.5477905" style="fill:none;stroke:rgb(119,147,60);stroke-width:3" clip-path="url(#clip29)" />
<clipPath id="clip30"><path d="M87,280 L148,280 L148,299 L87,299 L87,280 Z" /></clipPath>
<path d="M91,290 L144.0002441,290.3990173" style="fill:none;stroke:rgb(191,191,191);stroke-width:3" clip-path="url(#clip30)" />
<clipPath id="clip31"><path d="M180,281 L252,281 L252,300 L180,300 L180,281 Z" /></clipPath>
<path d="M184.995575,290.9257202 L248,291.9881592" style="fill:none;stroke:rgb(119,147,60);stroke-width:3" clip-path="url(#clip31)" />
<clipPath id="clip32"><path d="M180,281 L252,281 L252,300 L180,300 L180,281 Z" /></clipPath>
<path d="M239.2566681,296.8414307 L248,291.9881592 L239.4252777,286.842865 Z M239.2566681,296.8414307" style="fill:rgb(119,147,60);stroke:none" clip-path="url(#clip32)" />
<clipPath id="clip33"><path d="M180,281 L252,281 L252,300 L180,300 L180,281 Z" /></clipPath>
<path d="M239.2566681,296.8414307 L248,291.9881592 L239.4252777,286.842865 Z M239.2566681,296.8414307" style="fill:none;stroke:rgb(119,147,60);stroke-width:3" clip-path="url(#clip33)" />
<clipPath id="clip34"><path d="M49,309 L75,309 L75,363 L49,363 L49,309 Z" /></clipPath>
<path d="M61.8485718,313.451416 L61.0936966,359.0082092" style="fill:none;stroke:rgb(191,191,191);stroke-width:3" clip-path="url(#clip34)" />
<clipPath id="clip35"><path d="M48,397 L74,397 L74,480 L48,480 L48,397 Z" /></clipPath>
<path d="M60.5870438,401.9998169 L61.1566505,476.0020752" style="fill:none;stroke:rgb(255,3,3);stroke-width:3" clip-path="url(#clip35)" />
<clipPath id="clip36"><path d="M48,397 L74,397 L74,480 L48,480 L48,397 Z" /></clipPath>
<path d="M56.0901413,467.3805542 L61.1566505,476.0020752 L66.0898438,467.3035889 Z M56.0901413,467.3805542" style="fill:rgb(255,3,3);stroke:none" clip-path="url(#clip36)" />
<clipPath id="clip37"><path d="M48,397 L74,397 L74,480 L48,480 L48,397 Z" /></clipPath>
<path d="M56.0901413,467.3805542 L61.1566505,476.0020752 L66.0898438,467.3035889 Z M56.0901413,467.3805542" style="fill:none;stroke:rgb(255,3,3);stroke-width:3" clip-path="url(#clip37)" />
<clipPath id="clip38"><path d="M320,307 L346,307 L346,364 L320,364 L320,307 Z" /></clipPath>
<path d="M333.1700134,311 L333.3304443,360.089386" style="fill:none;stroke:rgb(166,166,166);stroke-width:3" clip-path="url(#clip38)" />
<clipPath id="clip39"><path d="M320,307 L346,307 L346,364 L320,364 L320,307 Z" /></clipPath>
<path d="M328.3021545,351.4455261 L333.3304443,360.089386 L338.302124,351.4128418" style="fill:none;stroke:rgb(166,166,166);stroke-width:3" clip-path="url(#clip39)" />
<clipPath id="clip40"><path d="M321,423 L347,423 L347,488 L321,488 L321,423 Z" /></clipPath>
<path d="M333.6528015,427.9194641 L334.403595,484.0002136" style="fill:none;stroke:rgb(166,166,166);stroke-width:3" clip-path="url(#clip40)" />
<clipPath id="clip41"><path d="M85,495 L317,495 L317,514 L85,514 L85,495 Z" /></clipPath>
<path d="M313.0003052,505.3820801 L89.9999542,504.5523071" style="fill:none;stroke:rgb(255,3,3);stroke-width:3" clip-path="url(#clip41)" />
<clipPath id="clip42"><path d="M85,495 L317,495 L317,514 L85,514 L85,495 Z" /></clipPath>
<path d="M98.6787567,499.5845642 L89.9999542,504.5523071 L98.6415405,509.5844727 Z M98.6787567,499.5845642" style="fill:rgb(255,3,3);stroke:none" clip-path="url(#clip42)" />
<clipPath id="clip43"><path d="M85,495 L317,495 L317,514 L85,514 L85,495 Z" /></clipPath>
<path d="M98.6787567,499.5845642 L89.9999542,504.5523071 L98.6415405,509.5844727 Z M98.6787567,499.5845642" style="fill:none;stroke:rgb(255,3,3);stroke-width:3" clip-path="url(#clip43)" />
<clipPath id="clip44"><path d="M391,383 L431,383 L431,402 L391,402 L391,383 Z" /></clipPath>
<path d="M395.9136047,392.9002075 L427.0018005,392.7709045" style="fill:none;stroke:rgb(166,166,166);stroke-width:3" clip-path="url(#clip44)" />
<clipPath id="clip45"><path d="M463,384 L524,384 L524,403 L463,403 L463,384 Z" /></clipPath>
<path d="M467.9927368,393.0454407 L520,394.2121277" style="fill:none;stroke:rgb(119,147,60);stroke-width:3" clip-path="url(#clip45)" />
<clipPath id="clip46"><path d="M463,384 L524,384 L524,403 L463,403 L463,384 Z" /></clipPath>
<path d="M511.2297974,399.0166321 L520,394.2121277 L511.454071,389.019165 Z M511.2297974,399.0166321" style="fill:rgb(119,147,60);stroke:none" clip-path="url(#clip46)" />
<clipPath id="clip47"><path d="M463,384 L524,384 L524,403 L463,403 L463,384 Z" /></clipPath>
<path d="M511.2297974,399.0166321 L520,394.2121277 L511.454071,389.019165 Z M511.2297974,399.0166321" style="fill:none;stroke:rgb(119,147,60);stroke-width:3" clip-path="url(#clip47)" />
</svg>
